<svg width="12" height="12" viewBox="0 0 12 12" fill="none" xmlns="http://www.w3.org/2000/svg">
<g clip-path="url(#clip0_908_1136)">
<path d="M12 1.49979V4.07122L6 6.64265L0 4.07122V1.49979C0 1.32929 0.0632141 1.16578 0.175736 1.04522C0.288258 0.924663 0.44087 0.856934 0.6 0.856934H11.4C11.5591 0.856934 11.7117 0.924663 11.8243 1.04522C11.9368 1.16578 12 1.32929 12 1.49979ZM0 5.45593V10.4998C0 10.6703 0.0632141 10.8338 0.175736 10.9544C0.288258 11.0749 0.44087 11.1426 0.6 11.1426H11.4C11.5591 11.1426 11.7117 11.0749 11.8243 10.9544C11.9368 10.8338 12 10.6703 12 10.4998V5.45593L6 8.02736L0 5.45593Z" fill="#404040"/>
</g>
<defs>
<clipPath id="clip0_908_1136">
<rect width="12" height="12" fill="white"/>
</clipPath>
</defs>
</svg>
