<svg width="12" height="12" viewBox="0 0 12 12" fill="none" xmlns="http://www.w3.org/2000/svg">
<path d="M11.6311 9.45031C11.7713 9.59098 11.8764 9.7627 11.9379 9.95155C11.9993 10.1404 12.0155 10.3411 11.985 10.5373C11.9545 10.7336 11.8782 10.9199 11.7623 11.0812C11.6464 11.2424 11.4942 11.3742 11.3179 11.4657C10.3106 12.0041 9.13691 12.1417 8.03237 11.8509C5.10083 11.1129 0.887128 6.89917 0.149145 3.96763C-0.141654 2.86309 -0.00405675 1.68943 0.534336 0.682103C0.625832 0.505829 0.757554 0.353579 0.918837 0.237682C1.08012 0.121785 1.26643 0.0454992 1.46268 0.0150013C1.65893 -0.0154967 1.8596 0.000650708 2.04845 0.062136C2.2373 0.123621 2.40902 0.228716 2.54969 0.36891L3.80066 1.61928C3.98107 1.79787 4.10314 2.02692 4.1508 2.27626C4.19846 2.52559 4.16947 2.78351 4.06766 3.01605C3.95624 3.27695 3.79804 3.51527 3.60087 3.71924C2.1705 5.1496 6.851 9.8301 8.28076 8.39913C8.48476 8.20125 8.7233 8.04243 8.98455 7.93054C9.21705 7.82856 9.47502 7.79948 9.72439 7.84715C9.97376 7.89482 10.2028 8.01699 10.3813 8.19754L11.6311 9.45031Z" fill="#404040"/>
</svg>
