<svg width="571" height="200" viewBox="0 0 571 200" fill="none" xmlns="http://www.w3.org/2000/svg">
<g clip-path="url(#clip0_1036_2724)">
<rect y="100" width="150" height="150" rx="16" transform="rotate(-45 0 100)" fill="white"/>
<rect x="21" y="99.8528" width="120" height="120" rx="6" transform="rotate(-45 21 99.8528)" fill="#93D3E5"/>
<path d="M30 109L63 90L105.853 111.5L146.5 90L182 109L105.853 184.206L30 109Z" fill="#2D4B8C"/>
<path d="M22.5 113L45.7005 100.345C56.6399 94.3782 70.0887 95.5413 79.8412 103.298L86.7347 108.78C98.2437 117.934 114.6 117.742 125.891 108.321L130.488 104.485C140.541 96.0973 154.781 94.9298 166.066 101.568L185.5 113" stroke="white" stroke-width="16"/>
<path d="M86 71.7083C86 67.7907 87.0324 63.9423 88.9933 60.5507L101.279 39.301C103.18 36.0132 107.908 35.9613 109.88 39.2066L122.787 60.4422C124.889 63.8995 126 67.8677 126 71.9136V74C126 85.0457 117.046 94 106 94V94C94.9543 94 86 85.0457 86 74V71.7083Z" fill="white" fill-opacity="0.46"/>
<path d="M96.6434 110.752C95.2967 124.294 97.4319 137.334 102.89 148.902C108.349 160.471 116.99 170.271 128.172 177.574L199 101.047L96.6434 110.752Z" fill="url(#paint0_linear_1036_2724)"/>
<path fill-rule="evenodd" clip-rule="evenodd" d="M524.105 93.2163C523.744 96.7154 523.414 100.643 526.202 103.352C529.452 106.494 533.43 108.043 538.453 108.043C543.477 108.043 548.925 106.797 552.541 104.085C555.828 101.623 558.635 96.8396 559.869 93.2163H524.105ZM571.07 168.328V124.26C571.07 119.565 570.572 110.014 557.398 110.014C554.019 110.014 548.615 110.378 544.961 116.765L529.062 144.523C528.32 145.843 527.903 146.584 527.411 146.584C526.342 146.584 526.428 145.102 526.428 143.698L527.25 110.67H508.306V155.149C508.306 162.066 509.789 169 521.156 169C529.142 169 532.007 165.844 533.594 163.136L549.985 135.133C551.137 133.239 551.628 132.334 552.127 132.334C552.948 132.334 552.948 133.405 552.948 134.474L552.127 168.328H571.07ZM453.742 138.521C453.742 133.747 453.859 130.628 455.883 127.57C458.373 123.805 461.568 123.37 466.349 123.37C471.204 123.37 474.236 123.799 476.807 127.57C479.004 130.79 478.948 133.498 478.948 138.521C478.948 143.135 478.93 146.347 476.807 149.478C474.248 153.251 471.204 153.677 466.349 153.677C461.648 153.677 458.355 153.257 455.883 149.478C454.003 146.6 453.742 143.053 453.742 138.521ZM466.349 109.035C457.621 109.035 447.312 109.288 441.142 114.965C434.885 120.727 434.636 130.781 434.636 138.521C434.636 146.101 434.891 156.237 441.142 162.079C447.23 167.768 457.782 168.024 466.349 168.024C474.908 168.024 485.46 167.768 491.548 162.079C497.804 156.239 498.054 146.101 498.054 138.521C498.054 130.781 497.804 120.724 491.548 114.965C485.379 109.285 475.076 109.035 466.349 109.035ZM384.953 136.747V127.767C384.953 126.532 385.201 124.391 388.165 124.391H398.461C400.603 124.391 402.744 124.403 404.307 125.71C405.789 126.943 405.957 128.753 405.957 130.24C405.957 132.63 405.384 134.277 404.475 135.263C402.913 136.91 400.597 136.747 398.3 136.747H384.953ZM384.953 167.718V151.079H409.255C412.381 151.079 416.683 150.265 419.385 147.946C424.252 143.77 424.57 133.865 424.57 129.829C424.57 121.508 422.989 116.982 420.294 114.098C417.069 110.651 412.786 110.059 408.179 110.059H376.306C372.352 110.059 369.881 111.632 368.643 113.022C366.675 115.246 366.338 118.555 366.338 120.932V167.718H384.953ZM338.061 167.718V124.391H358.654V110.059H298.841V124.391H319.446V167.718H338.061ZM290.49 167.718V153.384H274.509C268.331 153.384 262.98 153.384 260.51 148.853C260.014 147.865 259.108 145.725 259.108 139.3C259.108 136.499 259.353 131.804 261.003 128.923C263.556 124.31 268.085 124.391 274.183 124.391H289.584V110.059H265.203C258.694 110.059 250.296 110.801 245.023 117.555C240.906 122.744 240 129.993 240 139.629C240 150.668 241.812 156.351 245.272 160.635C249.966 166.48 255.978 167.718 264.957 167.718H290.49Z" fill="#2D4B8C"/>
<path fill-rule="evenodd" clip-rule="evenodd" d="M362.159 87.2837H380.162V29.9999H362.159V87.2837ZM424.926 87.2837L402.67 63.063C400.623 60.8512 400.296 58.9695 400.296 57.7394C400.296 56.2698 401.191 54.6296 402.014 53.6499L421.9 29.9999H399.968L384.583 51.6046C383.519 53.0762 382.784 55.7779 382.784 57.905C382.784 60.4411 383.715 63.0521 385.32 65.1073L402.67 87.2837H424.926ZM353.111 87.2837V73.0438H337.237C331.095 73.0438 325.779 73.0438 323.323 68.5443C322.831 67.5625 321.934 65.4335 321.934 59.0533C321.934 56.2698 322.209 51.6096 323.815 48.7403C326.37 44.1747 330.853 44.2398 336.907 44.2398H352.211V29.9999H327.988C321.524 29.9999 313.194 30.7628 307.941 37.4476C303.875 42.6174 302.947 49.8018 302.947 59.3766C302.947 70.345 304.762 75.9909 308.183 80.247C312.849 86.0447 318.823 87.2837 327.743 87.2837H353.111ZM240 87.2837H257.231V29.9999H240V87.2837ZM303.259 87.2837L281.001 63.063C278.955 60.8512 278.628 58.9695 278.628 57.7394C278.628 56.2698 279.528 54.6326 280.346 53.6499L300.23 29.9999H278.302L262.916 51.6046C261.851 53.0762 261.114 55.7779 261.114 57.905C261.114 60.4411 262.017 63.063 263.653 65.1073L281.001 87.2837H303.259Z" fill="#2D4B8C"/>
</g>
<defs>
<linearGradient id="paint0_linear_1036_2724" x1="104.623" y1="152.32" x2="207.372" y2="96.4983" gradientUnits="userSpaceOnUse">
<stop stop-color="white" stop-opacity="0.15"/>
<stop offset="1" stop-color="white" stop-opacity="0"/>
</linearGradient>
<clipPath id="clip0_1036_2724">
<rect width="571" height="200" fill="white"/>
</clipPath>
</defs>
</svg>
